<svg width="256" height="256" viewBox="0 0 256 256" fill="none" xmlns="http://www.w3.org/2000/svg">
  <g>
    <path d="M26 52C26 39.2975 39.2975 26 52 26H204C216.703 26 230 39.2975 230 52V80C230 85.5228 225.523 90 220 90C214.477 90 210 85.5228 210 80V52C210 48.6863 207.314 46 204 46H52C48.6863 46 46 48.6863 46 52V80C46 85.5228 41.5228 90 36 90C30.4772 90 26 85.5228 26 80V52Z" fill="#F7931E"/>
    <path d="M230 204C230 216.703 216.703 230 204 230H52C39.2975 230 26 216.703 26 204V176C26 170.477 30.4772 166 36 166C41.5228 166 46 170.477 46 176V204C46 207.314 48.6863 210 52 210H204C207.314 210 210 207.314 210 204V176C210 170.477 214.477 166 220 166C225.523 166 230 170.477 230 176V204Z" fill="#F7931E"/>
  </g>
</svg>
